<svg width="979" height="1023" viewBox="0 0 979 1023" fill="none" xmlns="http://www.w3.org/2000/svg">
<path d="M465.951 179.969C463.1 178.549 459.283 172.018 455.876 175.187C435.93 201.21 415.915 227.176 395.572 252.882C394.561 254.165 394.436 255.21 395.935 255.937C399.138 257.493 400.74 261.764 405.079 261.333C412.428 252.132 419.505 242.511 426.763 233.174C439.848 216.704 452.794 200.12 465.599 183.422C466.417 182.366 467.984 181.128 465.951 179.969Z" fill="url(#paint0_linear_424_19254)"/>
<path d="M555.629 179.969C558.48 178.549 562.285 172.018 565.704 175.187C585.639 201.21 605.653 227.176 626.008 252.882C627.019 254.165 627.144 255.21 625.645 255.937C622.442 257.493 620.84 261.764 616.558 261.333C609.209 252.132 602.132 242.511 594.874 233.174C581.788 216.704 568.839 200.12 556.027 183.422C555.152 182.366 553.63 181.128 555.629 179.969Z" fill="url(#paint1_linear_424_19254)"/>
<path d="M433.362 285.254H339.164C337.659 285.258 336.216 285.858 335.154 286.924L288.708 333.37C287.647 334.427 287.047 335.86 287.038 337.357V429.966C287.038 431.472 287.636 432.917 288.701 433.982C289.766 435.047 291.211 435.645 292.717 435.645H386.916C387.662 435.647 388.402 435.501 389.092 435.216C389.782 434.932 390.409 434.514 390.937 433.987L437.383 387.529C438.445 386.465 439.041 385.023 439.042 383.52V290.934C439.042 289.427 438.443 287.983 437.378 286.918C436.313 285.853 434.869 285.254 433.362 285.254ZM381.475 418.914C381.475 420.42 380.877 421.865 379.812 422.93C378.747 423.995 377.302 424.593 375.796 424.593H304.099C302.593 424.593 301.148 423.995 300.083 422.93C299.018 421.865 298.419 420.42 298.419 418.914V347.217C298.419 345.71 299.018 344.266 300.083 343.201C301.148 342.136 302.593 341.537 304.099 341.537H375.796C377.302 341.537 378.747 342.136 379.812 343.201C380.877 344.266 381.475 345.71 381.475 347.217V418.914ZM384.883 332.927H298.419L341.185 290.15H427.66L384.883 332.927ZM434.135 375.239V381.827L391.38 424.593V338.118L434.146 295.33L434.135 375.239Z" fill="url(#paint2_linear_424_19254)"/>
<path d="M708.871 285.254H614.672C613.167 285.258 611.725 285.858 610.662 286.924L564.205 333.37C563.678 333.899 563.26 334.526 562.975 335.216C562.691 335.906 562.545 336.645 562.546 337.391V430C562.546 431.506 563.145 432.951 564.21 434.016C565.275 435.081 566.72 435.679 568.226 435.679H662.425C663.928 435.679 665.37 435.083 666.434 434.021L712.892 387.563C713.954 386.499 714.55 385.057 714.55 383.554V290.934C714.55 289.427 713.952 287.983 712.887 286.918C711.822 285.853 710.377 285.254 708.871 285.254ZM656.984 418.914C656.984 420.42 656.385 421.865 655.32 422.93C654.255 423.995 652.811 424.593 651.304 424.593H579.607C578.101 424.593 576.657 423.995 575.591 422.93C574.526 421.865 573.928 420.42 573.928 418.914V347.217C573.928 345.71 574.526 344.266 575.591 343.201C576.657 342.136 578.101 341.537 579.607 341.537H651.304C652.811 341.537 654.255 342.136 655.32 343.201C656.385 344.266 656.984 345.71 656.984 347.217V418.914ZM660.391 332.927H573.928L616.694 290.15H703.169L660.391 332.927ZM709.643 375.239V381.827L666.877 424.593V338.118L709.655 295.33L709.643 375.239Z" fill="url(#paint3_linear_424_19254)"/>
<path d="M571.122 9.0586e-06H476.924C476.177 -0.00132387 475.438 0.144456 474.748 0.429014C474.058 0.713572 473.431 1.13133 472.903 1.6584L426.456 48.1161C425.403 49.1841 424.815 50.6256 424.821 52.1257V144.746C424.821 146.252 425.419 147.697 426.484 148.762C427.549 149.827 428.994 150.425 430.5 150.425H524.665C525.412 150.425 526.152 150.277 526.842 149.991C527.532 149.704 528.158 149.285 528.686 148.755L575.132 102.309C576.198 101.247 576.799 99.8044 576.802 98.2994V5.67943C576.802 4.17315 576.204 2.72857 575.138 1.66347C574.073 0.598375 572.629 9.0586e-06 571.122 9.0586e-06ZM519.235 133.659C519.235 135.166 518.637 136.61 517.572 137.675C516.507 138.741 515.062 139.339 513.556 139.339H441.859C440.353 139.339 438.908 138.741 437.843 137.675C436.778 136.61 436.179 135.166 436.179 133.659V61.9625C436.179 60.4562 436.778 59.0116 437.843 57.9465C438.908 56.8814 440.353 56.2831 441.859 56.2831H513.567C515.073 56.2831 516.518 56.8814 517.583 57.9465C518.648 59.0116 519.247 60.4562 519.247 61.9625L519.235 133.659ZM522.643 47.6617H436.179L478.945 4.89567H565.42L522.643 47.6617ZM571.883 89.9847V96.5501L529.117 139.316V52.864L571.895 10.098L571.883 89.9847Z" fill="url(#paint4_linear_424_19254)"/>
<path d="M541.419 367.254H460.169C458.287 367.254 456.762 368.78 456.762 370.662V377.409C456.762 379.291 458.287 380.817 460.169 380.817H541.419C543.301 380.817 544.827 379.291 544.827 377.409V370.662C544.827 368.78 543.301 367.254 541.419 367.254Z" fill="url(#paint5_linear_424_19254)"/>
<path d="M632.029 465.235C629.178 463.815 625.372 457.227 621.965 460.442C602.019 486.465 582.004 512.431 561.661 538.136C560.638 539.42 560.525 540.465 562.013 541.203C565.227 542.748 566.818 547.019 571.168 546.598C578.517 537.386 585.594 527.777 592.852 518.429C605.937 501.958 618.883 485.374 631.688 468.677C632.506 467.632 634.028 466.382 632.029 465.235Z" fill="url(#paint6_linear_424_19254)"/>
<path d="M721.718 465.235C724.569 463.815 728.374 457.227 731.793 460.442C751.728 486.465 771.743 512.431 792.098 538.136C793.108 539.42 793.233 540.465 791.734 541.203C788.519 542.748 786.929 547.019 782.647 546.598C775.298 537.386 768.21 527.777 760.963 518.429C747.87 501.958 734.921 485.374 722.116 468.677C721.286 467.632 719.719 466.382 721.718 465.235Z" fill="url(#paint7_linear_424_19254)"/>
<path d="M328.736 465.235C325.885 463.815 322.08 457.227 318.661 460.442C298.726 486.465 278.712 512.431 258.357 538.136C257.346 539.42 257.221 540.465 258.72 541.203C261.935 542.748 263.525 547.019 267.807 546.598C275.156 537.386 282.244 527.777 289.503 518.429C302.588 501.958 315.533 485.374 328.339 468.677C329.213 467.632 330.735 466.382 328.736 465.235Z" fill="url(#paint8_linear_424_19254)"/>
<path d="M418.425 465.235C421.277 463.815 425.082 457.227 428.489 460.442C448.436 486.465 468.45 512.431 488.793 538.136C489.816 539.42 489.929 540.465 488.441 541.203C485.227 542.748 483.637 547.019 479.286 546.598C471.937 537.386 464.86 527.777 457.602 518.429C444.517 501.958 431.571 485.374 418.766 468.677C418.005 467.632 416.426 466.382 418.425 465.235Z" fill="url(#paint9_linear_424_19254)"/>
<path d="M591.557 570.52H497.358C496.612 570.519 495.872 570.665 495.182 570.949C494.493 571.234 493.865 571.652 493.337 572.179L446.891 618.625C446.362 619.153 445.942 619.779 445.655 620.469C445.369 621.159 445.221 621.899 445.221 622.646V715.255C445.221 716.761 445.819 718.206 446.884 719.271C447.95 720.336 449.394 720.934 450.9 720.934H545.099C545.846 720.936 546.585 720.79 547.275 720.505C547.965 720.221 548.592 719.803 549.12 719.276L595.567 672.83C596.096 672.302 596.516 671.675 596.802 670.985C597.089 670.295 597.236 669.556 597.236 668.808V576.2C597.236 575.454 597.089 574.716 596.804 574.026C596.519 573.337 596.1 572.711 595.573 572.184C595.045 571.657 594.419 571.238 593.73 570.953C593.041 570.667 592.303 570.52 591.557 570.52ZM539.67 704.18C539.67 705.686 539.071 707.131 538.006 708.196C536.941 709.261 535.497 709.859 533.99 709.859H462.305C460.798 709.859 459.354 709.261 458.289 708.196C457.224 707.131 456.625 705.686 456.625 704.18V632.472C456.625 630.965 457.224 629.521 458.289 628.456C459.354 627.391 460.798 626.792 462.305 626.792H534.013C535.519 626.792 536.964 627.391 538.029 628.456C539.094 629.521 539.692 630.965 539.692 632.472L539.67 704.18ZM543.077 618.182H456.625L499.391 575.416H585.877L543.077 618.182ZM592.318 660.505V667.093L549.552 709.859V623.384L592.318 580.607V660.505Z" fill="url(#paint10_linear_424_19254)"/>
<path d="M867.054 570.52H772.855C771.352 570.521 769.91 571.117 768.846 572.179L722.422 618.625C721.893 619.153 721.473 619.779 721.187 620.469C720.9 621.159 720.753 621.899 720.752 622.646V715.255C720.752 716.761 721.351 718.206 722.416 719.271C723.481 720.336 724.926 720.934 726.432 720.934H820.631C821.377 720.936 822.116 720.79 822.806 720.505C823.496 720.221 824.123 719.803 824.652 719.276L871.098 672.83C871.625 672.301 872.043 671.674 872.327 670.984C872.612 670.294 872.758 669.555 872.756 668.809V576.2C872.756 575.452 872.609 574.712 872.322 574.021C872.035 573.331 871.615 572.704 871.085 572.176C870.555 571.648 869.926 571.23 869.235 570.946C868.543 570.662 867.802 570.518 867.054 570.52ZM815.167 704.18C815.167 705.686 814.569 707.131 813.504 708.196C812.439 709.261 810.994 709.859 809.488 709.859H737.791C736.284 709.859 734.84 709.261 733.775 708.196C732.71 707.131 732.111 705.686 732.111 704.18V632.472C732.111 630.965 732.71 629.521 733.775 628.456C734.84 627.391 736.284 626.792 737.791 626.792H809.488C810.994 626.792 812.439 627.391 813.504 628.456C814.569 629.521 815.167 630.965 815.167 632.472V704.18ZM818.575 618.182H732.111L774.877 575.416H861.352L818.575 618.182ZM867.815 660.505V667.093L825.049 709.859V623.385L867.815 580.607V660.505Z" fill="url(#paint11_linear_424_19254)"/>
<path d="M699.602 652.509H618.353C616.471 652.509 614.945 654.035 614.945 655.917V662.664C614.945 664.546 616.471 666.072 618.353 666.072H699.602C701.484 666.072 703.01 664.546 703.01 662.664V655.917C703.01 654.035 701.484 652.509 699.602 652.509Z" fill="url(#paint12_linear_424_19254)"/>
<path d="M316.048 570.52H221.85C221.103 570.519 220.364 570.665 219.674 570.949C218.984 571.234 218.357 571.652 217.829 572.179L171.382 618.625C170.855 619.154 170.437 619.781 170.153 620.471C169.868 621.161 169.723 621.9 169.724 622.646V715.255C169.724 716.761 170.322 718.206 171.387 719.271C172.452 720.336 173.897 720.934 175.403 720.934H269.602C271.106 720.934 272.547 720.337 273.612 719.276L320.058 672.83C320.587 672.302 321.007 671.675 321.294 670.985C321.58 670.295 321.728 669.556 321.728 668.808V576.2C321.728 574.694 321.13 573.249 320.064 572.184C318.999 571.119 317.555 570.52 316.048 570.52ZM264.161 704.18C264.161 705.686 263.563 707.131 262.498 708.196C261.433 709.261 259.988 709.859 258.482 709.859H186.785C185.279 709.859 183.834 709.261 182.769 708.196C181.704 707.131 181.105 705.686 181.105 704.18V632.472C181.105 630.965 181.704 629.521 182.769 628.456C183.834 627.391 185.279 626.792 186.785 626.792H258.482C259.988 626.792 261.433 627.391 262.498 628.456C263.563 629.521 264.161 630.965 264.161 632.472V704.18ZM267.569 618.182H181.105L223.871 575.416H310.346L267.569 618.182ZM316.809 660.505V667.093L274.043 709.859V623.384L316.809 580.607V660.505Z" fill="url(#paint13_linear_424_19254)"/>
<path d="M424.105 652.509H342.855C340.973 652.509 339.448 654.035 339.448 655.917V662.664C339.448 664.546 340.973 666.072 342.855 666.072H424.105C425.987 666.072 427.513 664.546 427.513 662.664V655.917C427.513 654.035 425.987 652.509 424.105 652.509Z" fill="url(#paint14_linear_424_19254)"/>
<path d="M462.305 767.301C459.454 765.881 455.637 759.35 452.229 762.519C432.283 788.531 412.269 814.497 391.925 840.202C390.914 841.486 390.789 842.542 392.289 843.269C395.492 844.814 397.094 849.085 401.433 848.665C408.782 839.453 415.858 829.843 423.117 820.495C436.202 804.024 449.151 787.444 461.964 770.754C462.782 769.698 464.315 768.448 462.305 767.301Z" fill="url(#paint15_linear_424_19254)"/>
<path d="M552.04 767.301C554.891 765.881 558.696 759.35 562.115 762.519C582.05 788.531 602.064 814.497 622.419 840.202C623.43 841.486 623.555 842.542 622.056 843.269C618.853 844.814 617.251 849.085 612.912 848.665C605.563 839.453 598.486 829.843 591.228 820.495C578.142 804.024 565.193 787.444 552.381 770.754C551.517 769.698 549.995 768.448 552.04 767.301Z" fill="url(#paint16_linear_424_19254)"/>
<path d="M751.887 767.301C749.036 765.881 745.231 759.35 741.823 762.519C721.877 788.531 701.863 814.497 681.519 840.202C680.497 841.486 680.383 842.542 681.871 843.269C685.086 844.814 686.676 849.085 691.026 848.665C698.375 839.453 705.452 829.843 712.71 820.495C725.796 804.024 738.741 787.444 751.546 770.754C752.364 769.698 753.886 768.448 751.887 767.301Z" fill="url(#paint17_linear_424_19254)"/>
<path d="M841.576 767.301C844.427 765.881 848.233 759.35 851.652 762.519C871.586 788.531 891.601 814.497 911.956 840.202C912.967 841.486 913.092 842.542 911.592 843.269C908.378 844.814 906.787 849.085 902.505 848.665C895.156 839.453 888.068 829.843 880.821 820.495C867.728 804.024 854.779 787.444 841.974 770.754C841.099 769.698 839.577 768.448 841.576 767.301Z" fill="url(#paint18_linear_424_19254)"/>
<path d="M159.024 767.301C156.173 765.881 152.368 759.35 148.96 762.519C129.002 788.531 109.045 814.497 88.599 840.202C87.5767 841.486 87.4631 842.542 88.9511 843.269C92.1657 844.814 93.7559 849.085 98.1063 848.665C105.456 839.453 112.532 829.843 119.79 820.495C132.876 804.024 145.821 787.444 158.626 770.754C159.489 769.698 161.012 768.448 159.024 767.301Z" fill="url(#paint19_linear_424_19254)"/>
<path d="M248.759 767.301C251.61 765.881 255.415 759.35 258.834 762.519C278.769 788.531 298.783 814.497 319.138 840.202C320.149 841.486 320.274 842.542 318.775 843.269C315.56 844.814 313.97 849.085 309.688 848.665C302.339 839.453 295.251 829.843 287.992 820.495C274.892 804.024 261.943 787.444 249.145 770.754C248.225 769.698 246.703 768.448 248.759 767.301Z" fill="url(#paint20_linear_424_19254)"/>
<path d="M421.833 872.586H327.635C326.888 872.585 326.149 872.731 325.459 873.015C324.769 873.3 324.142 873.718 323.614 874.245L277.156 920.691C276.629 921.219 276.211 921.847 275.927 922.536C275.642 923.226 275.496 923.966 275.498 924.712V1017.32C275.498 1018.83 276.096 1020.27 277.161 1021.34C278.226 1022.4 279.671 1023 281.177 1023H375.376C376.879 1023 378.321 1022.4 379.386 1021.34L425.832 974.895C426.361 974.368 426.781 973.741 427.067 973.051C427.354 972.361 427.501 971.621 427.502 970.874V878.266C427.502 876.761 426.905 875.319 425.842 874.254C424.779 873.189 423.338 872.589 421.833 872.586ZM369.946 1006.25C369.946 1007.75 369.348 1009.2 368.283 1010.26C367.218 1011.33 365.773 1011.93 364.267 1011.93H292.57C291.064 1011.93 289.619 1011.33 288.554 1010.26C287.489 1009.2 286.89 1007.75 286.89 1006.25V934.537C286.89 933.031 287.489 931.587 288.554 930.522C289.619 929.456 291.064 928.858 292.57 928.858H364.267C365.773 928.858 367.218 929.456 368.283 930.522C369.348 931.587 369.946 933.031 369.946 934.537V1006.25ZM373.354 920.248H286.89L329.657 877.482H416.131L373.354 920.248ZM422.595 962.571V969.159L379.84 1011.93V925.45L422.606 882.673L422.595 962.571Z" fill="url(#paint21_linear_424_19254)"/>
<path d="M697.331 872.586H603.155C602.408 872.585 601.669 872.731 600.979 873.015C600.289 873.3 599.662 873.718 599.134 874.245L552.687 920.691C552.158 921.218 551.738 921.845 551.452 922.535C551.165 923.225 551.018 923.965 551.018 924.712V1017.32C551.018 1018.83 551.616 1020.27 552.681 1021.34C553.746 1022.4 555.191 1023 556.697 1023H650.862C651.608 1023 652.347 1022.86 653.037 1022.57C653.727 1022.29 654.354 1021.87 654.883 1021.34L701.329 974.895C701.856 974.367 702.274 973.74 702.558 973.05C702.843 972.36 702.989 971.621 702.987 970.874V878.266C702.987 876.763 702.392 875.322 701.332 874.258C700.272 873.193 698.833 872.592 697.331 872.586ZM645.455 1006.25C645.455 1007.75 644.857 1009.2 643.791 1010.26C642.726 1011.33 641.282 1011.93 639.776 1011.93H568.067C566.561 1011.93 565.116 1011.33 564.051 1010.26C562.986 1009.2 562.388 1007.75 562.388 1006.25V934.537C562.388 933.031 562.986 931.587 564.051 930.522C565.116 929.456 566.561 928.858 568.067 928.858H639.776C641.282 928.858 642.726 929.456 643.791 930.522C644.857 931.587 645.455 933.031 645.455 934.537V1006.25ZM648.863 920.248H562.388L605.154 877.482H691.64L648.863 920.248ZM698.115 962.571V969.159L655.405 1011.93V925.45L698.171 882.673L698.115 962.571Z" fill="url(#paint22_linear_424_19254)"/>
<path d="M529.878 954.574H448.629C446.747 954.574 445.221 956.1 445.221 957.982V964.729C445.221 966.611 446.747 968.137 448.629 968.137H529.878C531.76 968.137 533.286 966.611 533.286 964.729V957.982C533.286 956.1 531.76 954.574 529.878 954.574Z" fill="url(#paint23_linear_424_19254)"/>
<path d="M972.839 872.586H878.64C877.137 872.587 875.695 873.183 874.631 874.245L828.173 920.691C827.646 921.219 827.228 921.847 826.944 922.536C826.659 923.226 826.513 923.966 826.515 924.712V1017.32C826.515 1018.83 827.113 1020.27 828.178 1021.34C829.243 1022.4 830.688 1023 832.194 1023H926.393C927.896 1023 929.338 1022.4 930.403 1021.34L976.86 974.895C977.387 974.367 977.805 973.74 978.09 973.05C978.374 972.36 978.52 971.621 978.519 970.874V878.266C978.519 876.76 977.92 875.315 976.855 874.25C975.79 873.185 974.346 872.586 972.839 872.586ZM920.952 1006.25C920.952 1007.75 920.354 1009.2 919.289 1010.26C918.223 1011.33 916.779 1011.93 915.273 1011.93H843.576C842.069 1011.93 840.625 1011.33 839.56 1010.26C838.495 1009.2 837.896 1007.75 837.896 1006.25V934.537C837.896 933.031 838.495 931.587 839.56 930.522C840.625 929.456 842.069 928.858 843.576 928.858H915.273C916.779 928.858 918.223 929.456 919.289 930.522C920.354 931.587 920.952 933.031 920.952 934.537V1006.25ZM924.36 920.248H837.896L880.662 877.482H967.137L924.36 920.248ZM973.612 962.571V969.159L930.834 1011.93V925.45L973.612 882.673V962.571Z" fill="url(#paint24_linear_424_19254)"/>
<path d="M805.387 954.574H724.137C722.255 954.574 720.73 956.1 720.73 957.982V964.729C720.73 966.611 722.255 968.137 724.137 968.137H805.387C807.269 968.137 808.795 966.611 808.795 964.729V957.982C808.795 956.1 807.269 954.574 805.387 954.574Z" fill="url(#paint25_linear_424_19254)"/>
<path d="M146.325 872.586H52.1257C50.6223 872.587 49.1804 873.183 48.116 874.245L1.6584 920.691C1.13133 921.219 0.713572 921.847 0.429014 922.536C0.144456 923.226 -0.00132387 923.966 9.0586e-06 924.712V1017.32C9.0586e-06 1018.83 0.598375 1020.27 1.66347 1021.34C2.72857 1022.4 4.17315 1023 5.67943 1023H99.8783C101.382 1023 102.824 1022.4 103.888 1021.34L150.346 974.895C150.873 974.367 151.29 973.74 151.575 973.05C151.86 972.36 152.005 971.621 152.004 970.874V878.266C152.004 877.52 151.857 876.781 151.572 876.092C151.286 875.403 150.868 874.777 150.341 874.25C149.813 873.722 149.187 873.304 148.498 873.019C147.809 872.733 147.07 872.586 146.325 872.586ZM94.4374 1006.25C94.4374 1007.75 93.839 1009.2 92.7739 1010.26C91.7088 1011.33 90.2642 1011.93 88.758 1011.93H17.0383C15.532 1011.93 14.0874 1011.33 13.0223 1010.26C11.9572 1009.2 11.3588 1007.75 11.3588 1006.25V934.537C11.3588 933.031 11.9572 931.587 13.0223 930.522C14.0874 929.456 15.532 928.858 17.0383 928.858H88.758C90.2642 928.858 91.7088 929.456 92.7739 930.522C93.839 931.587 94.4374 933.031 94.4374 934.537V1006.25ZM97.845 920.248H11.3588L54.1249 877.482H140.622L97.845 920.248ZM147.097 962.571V969.159L104.342 1011.93V925.45L147.108 882.673L147.097 962.571Z" fill="url(#paint26_linear_424_19254)"/>
<path d="M254.381 954.574H173.132C171.25 954.574 169.724 956.1 169.724 957.982V964.729C169.724 966.611 171.25 968.137 173.132 968.137H254.381C256.263 968.137 257.789 966.611 257.789 964.729V957.982C257.789 956.1 256.263 954.574 254.381 954.574Z" fill="url(#paint27_linear_424_19254)"/>
<defs>
<linearGradient id="paint0_linear_424_19254" x1="444.227" y1="276.843" x2="498.68" y2="200.55" gradientUnits="userSpaceOnUse">
<stop stop-color="#919EAB"/>
<stop offset="1" stop-color="#919EAB" stop-opacity="0.01"/>
</linearGradient>
<linearGradient id="paint1_linear_424_19254" x1="604.052" y1="276.843" x2="658.508" y2="200.56" gradientUnits="userSpaceOnUse">
<stop stop-color="#919EAB"/>
<stop offset="1" stop-color="#919EAB" stop-opacity="0.01"/>
</linearGradient>
<linearGradient id="paint2_linear_424_19254" x1="391.164" y1="462.395" x2="477.915" y2="314.182" gradientUnits="userSpaceOnUse">
<stop stop-color="#919EAB"/>
<stop offset="1" stop-color="#919EAB" stop-opacity="0.01"/>
</linearGradient>
<linearGradient id="paint3_linear_424_19254" x1="666.672" y1="462.435" x2="753.452" y2="314.206" gradientUnits="userSpaceOnUse">
<stop stop-color="#919EAB"/>
<stop offset="1" stop-color="#919EAB" stop-opacity="0.01"/>
</linearGradient>
<linearGradient id="paint4_linear_424_19254" x1="528.931" y1="177.181" x2="615.717" y2="28.9627" gradientUnits="userSpaceOnUse">
<stop stop-color="#919EAB"/>
<stop offset="1" stop-color="#919EAB" stop-opacity="0.01"/>
</linearGradient>
<linearGradient id="paint5_linear_424_19254" x1="517.088" y1="383.229" x2="518.71" y2="365.431" gradientUnits="userSpaceOnUse">
<stop stop-color="#919EAB"/>
<stop offset="1" stop-color="#919EAB" stop-opacity="0.01"/>
</linearGradient>
<linearGradient id="paint6_linear_424_19254" x1="610.299" y1="562.112" x2="664.777" y2="485.824" gradientUnits="userSpaceOnUse">
<stop stop-color="#919EAB"/>
<stop offset="1" stop-color="#919EAB" stop-opacity="0.01"/>
</linearGradient>
<linearGradient id="paint7_linear_424_19254" x1="770.145" y1="562.112" x2="824.625" y2="485.83" gradientUnits="userSpaceOnUse">
<stop stop-color="#919EAB"/>
<stop offset="1" stop-color="#919EAB" stop-opacity="0.01"/>
</linearGradient>
<linearGradient id="paint8_linear_424_19254" x1="307.003" y1="562.112" x2="361.48" y2="485.822" gradientUnits="userSpaceOnUse">
<stop stop-color="#919EAB"/>
<stop offset="1" stop-color="#919EAB" stop-opacity="0.01"/>
</linearGradient>
<linearGradient id="paint9_linear_424_19254" x1="466.848" y1="562.112" x2="521.33" y2="485.834" gradientUnits="userSpaceOnUse">
<stop stop-color="#919EAB"/>
<stop offset="1" stop-color="#919EAB" stop-opacity="0.01"/>
</linearGradient>
<linearGradient id="paint10_linear_424_19254" x1="549.355" y1="747.688" x2="636.122" y2="599.458" gradientUnits="userSpaceOnUse">
<stop stop-color="#919EAB"/>
<stop offset="1" stop-color="#919EAB" stop-opacity="0.01"/>
</linearGradient>
<linearGradient id="paint11_linear_424_19254" x1="824.878" y1="747.688" x2="911.649" y2="599.464" gradientUnits="userSpaceOnUse">
<stop stop-color="#919EAB"/>
<stop offset="1" stop-color="#919EAB" stop-opacity="0.01"/>
</linearGradient>
<linearGradient id="paint12_linear_424_19254" x1="675.271" y1="668.484" x2="676.893" y2="650.687" gradientUnits="userSpaceOnUse">
<stop stop-color="#919EAB"/>
<stop offset="1" stop-color="#919EAB" stop-opacity="0.01"/>
</linearGradient>
<linearGradient id="paint13_linear_424_19254" x1="273.85" y1="747.688" x2="360.62" y2="599.464" gradientUnits="userSpaceOnUse">
<stop stop-color="#919EAB"/>
<stop offset="1" stop-color="#919EAB" stop-opacity="0.01"/>
</linearGradient>
<linearGradient id="paint14_linear_424_19254" x1="399.774" y1="668.484" x2="401.396" y2="650.687" gradientUnits="userSpaceOnUse">
<stop stop-color="#919EAB"/>
<stop offset="1" stop-color="#919EAB" stop-opacity="0.01"/>
</linearGradient>
<linearGradient id="paint15_linear_424_19254" x1="440.576" y1="864.174" x2="495.029" y2="787.885" gradientUnits="userSpaceOnUse">
<stop stop-color="#919EAB"/>
<stop offset="1" stop-color="#919EAB" stop-opacity="0.01"/>
</linearGradient>
<linearGradient id="paint16_linear_424_19254" x1="600.452" y1="864.174" x2="654.899" y2="787.866" gradientUnits="userSpaceOnUse">
<stop stop-color="#919EAB"/>
<stop offset="1" stop-color="#919EAB" stop-opacity="0.01"/>
</linearGradient>
<linearGradient id="paint17_linear_424_19254" x1="730.157" y1="864.174" x2="784.613" y2="787.893" gradientUnits="userSpaceOnUse">
<stop stop-color="#919EAB"/>
<stop offset="1" stop-color="#919EAB" stop-opacity="0.01"/>
</linearGradient>
<linearGradient id="paint18_linear_424_19254" x1="889.999" y1="864.174" x2="944.454" y2="787.891" gradientUnits="userSpaceOnUse">
<stop stop-color="#919EAB"/>
<stop offset="1" stop-color="#919EAB" stop-opacity="0.01"/>
</linearGradient>
<linearGradient id="paint19_linear_424_19254" x1="137.269" y1="864.174" x2="191.713" y2="787.86" gradientUnits="userSpaceOnUse">
<stop stop-color="#919EAB"/>
<stop offset="1" stop-color="#919EAB" stop-opacity="0.01"/>
</linearGradient>
<linearGradient id="paint20_linear_424_19254" x1="297.169" y1="864.174" x2="351.614" y2="787.862" gradientUnits="userSpaceOnUse">
<stop stop-color="#919EAB"/>
<stop offset="1" stop-color="#919EAB" stop-opacity="0.01"/>
</linearGradient>
<linearGradient id="paint21_linear_424_19254" x1="379.623" y1="1049.75" x2="466.394" y2="901.53" gradientUnits="userSpaceOnUse">
<stop stop-color="#919EAB"/>
<stop offset="1" stop-color="#919EAB" stop-opacity="0.01"/>
</linearGradient>
<linearGradient id="paint22_linear_424_19254" x1="655.12" y1="1049.75" x2="741.9" y2="901.547" gradientUnits="userSpaceOnUse">
<stop stop-color="#919EAB"/>
<stop offset="1" stop-color="#919EAB" stop-opacity="0.01"/>
</linearGradient>
<linearGradient id="paint23_linear_424_19254" x1="505.547" y1="970.549" x2="507.169" y2="952.752" gradientUnits="userSpaceOnUse">
<stop stop-color="#919EAB"/>
<stop offset="1" stop-color="#919EAB" stop-opacity="0.01"/>
</linearGradient>
<linearGradient id="paint24_linear_424_19254" x1="930.641" y1="1049.75" x2="1017.41" y2="901.53" gradientUnits="userSpaceOnUse">
<stop stop-color="#919EAB"/>
<stop offset="1" stop-color="#919EAB" stop-opacity="0.01"/>
</linearGradient>
<linearGradient id="paint25_linear_424_19254" x1="781.056" y1="970.549" x2="782.678" y2="952.752" gradientUnits="userSpaceOnUse">
<stop stop-color="#919EAB"/>
<stop offset="1" stop-color="#919EAB" stop-opacity="0.01"/>
</linearGradient>
<linearGradient id="paint26_linear_424_19254" x1="104.126" y1="1049.75" x2="190.896" y2="901.53" gradientUnits="userSpaceOnUse">
<stop stop-color="#919EAB"/>
<stop offset="1" stop-color="#919EAB" stop-opacity="0.01"/>
</linearGradient>
<linearGradient id="paint27_linear_424_19254" x1="230.05" y1="970.549" x2="231.672" y2="952.752" gradientUnits="userSpaceOnUse">
<stop stop-color="#919EAB"/>
<stop offset="1" stop-color="#919EAB" stop-opacity="0.01"/>
</linearGradient>
</defs>
</svg>
