<svg width="19" height="19" viewBox="0 0 19 19" fill="none" xmlns="http://www.w3.org/2000/svg">
<path fill-rule="evenodd" clip-rule="evenodd" d="M9.35896 18.3102C14.2247 18.3102 18.1691 14.3658 18.1691 9.50007C18.1691 4.63437 14.2247 0.689941 9.35896 0.689941C4.49326 0.689941 0.548828 4.63437 0.548828 9.50007C0.548828 14.3658 4.49326 18.3102 9.35896 18.3102ZM9.37103 9.90316C10.0183 9.90316 10.3085 9.88585 10.3647 9.88163L10.3628 9.88117C12.3487 9.79317 13.83 9.44683 13.83 9.03308C13.83 8.61933 12.3482 8.27298 10.3628 8.18452V9.53716C10.3071 9.5423 9.99774 9.56805 9.37993 9.56805C8.86508 9.56805 8.49252 9.54605 8.36241 9.53669L8.36241 8.18359C6.37277 8.27251 4.88768 8.61839 4.88768 9.03308C4.88768 9.44776 6.37277 9.79411 8.36241 9.88163C8.49065 9.88772 8.85619 9.90316 9.37103 9.90316ZM10.3647 8.04413V8.04458L10.3642 8.04411C10.3644 8.04412 10.3645 8.04412 10.3647 8.04413ZM10.3647 6.83376V8.04413C12.6124 8.14808 14.3014 8.59363 14.3014 9.12762C14.3014 9.66166 12.6108 10.1072 10.3642 10.2107V14.0921H8.36194V10.2121C6.1102 10.1082 4.41683 9.66259 4.41683 9.12809C4.41683 8.59359 6.1102 8.14755 8.36194 8.04411V6.83376H5.59161V4.98734L13.1355 4.98734L13.1355 6.83376H10.3647Z" fill="white"/>
</svg>
